# xmcd CD database file
#
# Track frame offsets:
#	150
#	15300
#	35700
#	64650
#	77050
#	90988
#	114013
#	128450
#	144650
#	163100
#	198538
#	223475
#
# Disc length: 3554 seconds
#
# Revision: 0
# Processed by: cddbd v1.4PL0 Copyright (c) Steve Scherf et al.
# Submitted via: CDex 1.50
#
DISCID=9d0de00c
DTITLE=多位演出者 - IN A SENTIMENTAL MOOD
DYEAR=1900
DGENRE=Jazz
TTITLE0=IN A SENTIMENTAL MOOD
TTITLE1=SINCE I FEEL FOR YOU
TTITLE2=SUMMER OF '42
TTITLE3=MY OLD FLAME
TTITLE4=STARDUST
TTITLE5=STELLA BY STARLIGHT
TTITLE6=THE VERY THOUGHT OF YOU
TTITLE7='ROUND MIDNIGHT
TTITLE8=I'M GETTING SENTIMENTAL OVER YOU
TTITLE9=BLACK COFFEE
TTITLE10=GLAD TO BE UNHAPPY
TTITLE11=WILLOW WEEP FOR ME
EXTD=
EXTT0=
EXTT1=
EXTT2=
EXTT3=
EXTT4=
EXTT5=
EXTT6=
EXTT7=
EXTT8=
EXTT9=
EXTT10=
EXTT11=
PLAYORDER=
